<?xml version="1.0" encoding="UTF-8"?>
<svg version="1.1" xmlns="http://www.w3.org/2000/svg" width="512" height="512">
<path d="M0 0 C1.01790619 0.00215515 2.03581238 0.0043103 3.08456421 0.00653076 C17.69363523 0.05620146 32.02575853 0.30709809 46.375 3.3125 C47.34985352 3.51117676 48.32470703 3.70985352 49.32910156 3.91455078 C88.46706278 12.1015107 124.71208214 27.78530345 156.375 52.3125 C157.27347656 52.99828125 158.17195313 53.6840625 159.09765625 54.390625 C174.64697517 66.51465814 189.2952143 80.73068469 201.375 96.3125 C202.14972656 97.27027344 202.92445313 98.22804688 203.72265625 99.21484375 C238.26056965 142.61986011 256.81394766 197.76289597 256.69067383 253.03979492 C256.6875221 255.97938487 256.71104926 258.9179558 256.73632812 261.85742188 C256.78098737 275.23056192 255.57551542 288.12666711 253.375 301.3125 C253.09281616 303.01805054 253.09281616 303.01805054 252.80493164 304.75805664 C245.77946967 343.86954746 228.79665906 381.05202178 204.375 412.3125 C203.61574219 413.28445313 202.85648437 414.25640625 202.07421875 415.2578125 C189.73986402 430.63741644 175.93895499 445.19015196 160.375 457.3125 C159.43914062 458.07691406 158.50328125 458.84132813 157.5390625 459.62890625 C125.58628299 485.2157721 86.41988322 501.72551276 46.375 509.3125 C45.56562988 509.47621094 44.75625977 509.63992188 43.92236328 509.80859375 C13.88110013 515.67977137 -20.7615176 514.58512909 -50.625 508.3125 C-52.14794678 507.99901611 -52.14794678 507.99901611 -53.70166016 507.67919922 C-90.84546555 499.78695344 -125.70945445 483.68345578 -155.625 460.3125 C-156.59695312 459.55324219 -157.56890625 458.79398437 -158.5703125 458.01171875 C-173.94991644 445.67736402 -188.50265196 431.87645499 -200.625 416.3125 C-201.77162109 414.90871094 -201.77162109 414.90871094 -202.94140625 413.4765625 C-228.5282721 381.52378299 -245.03801276 342.35738322 -252.625 302.3125 C-252.78871094 301.50312988 -252.95242187 300.69375977 -253.12109375 299.85986328 C-258.59069558 271.87335724 -258.46977511 238.21828161 -252.625 210.3125 C-252.42632324 209.33764648 -252.22764648 208.36279297 -252.02294922 207.35839844 C-241.93598313 159.13741149 -219.89911449 114.53770064 -185.40722656 79.14160156 C-183.63301167 77.32072238 -181.87518486 75.48496071 -180.1171875 73.6484375 C-173.01832106 66.31138736 -165.60682072 59.74213624 -157.41796875 53.64794922 C-155.58092428 52.27967127 -153.75911069 50.89264471 -151.9375 49.50390625 C-143.51077324 43.13790222 -134.81596417 37.50688619 -125.625 32.3125 C-124.99464844 31.94946777 -124.36429688 31.58643555 -123.71484375 31.21240234 C-85.96656579 9.60246645 -43.19754839 -0.16448837 0 0 Z M-144.625 71.3125 C-145.58664063 72.07046875 -146.54828125 72.8284375 -147.5390625 73.609375 C-162.83736246 86.08039421 -177.08184731 100.28034348 -188.625 116.3125 C-189.58019531 117.60994141 -189.58019531 117.60994141 -190.5546875 118.93359375 C-212.65500367 149.62847733 -226.81164449 185.00529104 -232.625 222.3125 C-232.74359375 223.06756836 -232.8621875 223.82263672 -232.984375 224.60058594 C-241.91479221 284.58853723 -224.6608334 347.1040094 -189.0625 395.6875 C-187.59735866 397.57347982 -186.11817757 399.44863848 -184.625 401.3125 C-183.86703125 402.27414062 -183.1090625 403.23578125 -182.328125 404.2265625 C-169.90055625 419.47156143 -155.74640259 433.97815044 -139.625 445.3125 C-138.50351563 446.11131592 -138.50351563 446.11131592 -137.359375 446.92626953 C-116.86607296 461.41108552 -95.39988116 472.30004231 -71.625 480.3125 C-70.84431152 480.57643555 -70.06362305 480.84037109 -69.25927734 481.11230469 C-10.88488814 500.44433705 53.96724481 492.74648478 108.40234375 465.46484375 C121.51395397 458.67862276 133.8558631 450.54071612 145.375 441.3125 C146.33664062 440.55453125 147.29828125 439.7965625 148.2890625 439.015625 C163.53406143 426.58805625 178.04065044 412.43390259 189.375 396.3125 C189.90754395 395.56484375 190.44008789 394.8171875 190.98876953 394.046875 C226.81142571 343.36452505 242.86116769 281.04406898 232.91845703 219.41308594 C225.98246914 179.84118738 210.5848995 142.78080112 185.375 111.3125 C184.61703125 110.35085937 183.8590625 109.38921875 183.078125 108.3984375 C170.60710579 93.10013754 156.40715652 78.85565269 140.375 67.3125 C139.51003906 66.67570312 138.64507812 66.03890625 137.75390625 65.3828125 C106.99376462 43.23551053 71.71300623 29.26396543 34.375 23.3125 C33.6629541 23.19390625 32.9509082 23.0753125 32.21728516 22.953125 C-29.41814241 13.04664155 -96.29521763 32.59452309 -144.625 71.3125 Z " fill="#000000" transform="translate(255.625,-0.3125)"/>
<path d="M0 0 C0.75925781 -0.04898438 1.51851563 -0.09796875 2.30078125 -0.1484375 C9.01639769 1.32438182 13.32622444 10.11234062 16.86328125 15.62109375 C43.97275638 59.92194335 51.15631553 113.13529581 39.73803711 163.49755859 C27.71125912 213.44270276 -4.24432818 256.67162725 -47.65820312 283.88452148 C-93.60828377 311.77825138 -147.3250617 319.20425679 -199.4375 306.6875 C-219.93982316 301.44947653 -254.9606213 290.90281805 -267.3125 272.375 C-268.00995317 269.24571896 -267.90310181 266.51871576 -267.3125 263.375 C-266.09444457 261.52761978 -266.09444457 261.52761978 -264.43179035 259.73660183 C-263.79215811 259.04395635 -263.15252588 258.35131086 -262.49351084 257.63767612 C-258.31905148 253.30690924 -254.09973174 249.02503367 -249.84135437 244.77687073 C-248.78882808 243.72319041 -247.73651958 242.6692925 -246.68440849 241.6151976 C-243.81032416 238.73695903 -240.93315413 235.86182285 -238.05543935 232.98721468 C-234.94599357 229.88003858 -231.83943547 226.7699776 -228.73249817 223.66029358 C-222.65420246 217.57755889 -216.57321578 211.49752136 -210.49124923 205.41845728 C-205.55061739 200.48008558 -200.6109646 195.54073656 -195.67200661 190.60069084 C-194.61688279 189.54533717 -194.61688279 189.54533717 -193.54044333 188.46866323 C-192.1114653 187.03936547 -190.68248951 185.61006546 -189.25351594 184.18076324 C-175.86656698 170.7909653 -162.47655888 157.40422995 -149.08549742 144.01854508 C-137.58772936 132.52525039 -126.09259388 121.02932815 -114.59936523 109.53149414 C-101.25163651 96.17841946 -87.90229438 82.82696118 -74.55035526 69.47809643 C-73.12820626 68.05626598 -71.70605936 66.63443345 -70.28391457 65.2125988 C-69.5841769 64.51301541 -68.88443923 63.81343201 -68.16349738 63.09264912 C-63.22466362 58.15468001 -58.2869937 53.21554894 -53.34976768 48.27597237 C-47.34038425 42.26379077 -41.32923548 36.25338103 -35.3157834 30.24526883 C-32.24594692 27.17806822 -29.17692982 24.11005914 -26.11005783 21.0398941 C-23.30651611 18.23338748 -20.50070347 15.42917286 -17.69300804 12.62682187 C-16.67414468 11.60908178 -15.65613622 10.59048502 -14.63904043 9.57097847 C-13.26360499 8.1925315 -11.88482805 6.81742108 -10.50585461 5.44251347 C-9.35529796 4.29220035 -9.35529796 4.29220035 -8.18149775 3.11864859 C-5.45950195 0.57921047 -3.64386247 0.1592276 0 0 Z M-5.0741359 29.88823891 C-6.14836471 30.96360688 -6.14836471 30.96360688 -7.24429512 32.06069946 C-8.4833903 33.2938215 -8.4833903 33.2938215 -9.7475177 34.55185509 C-10.65995582 35.47011889 -11.57239393 36.38838268 -12.51248169 37.33447266 C-13.48723355 38.30835325 -14.46242443 39.28179459 -15.43801868 40.25483131 C-18.12879204 42.94111178 -20.81325466 45.63362399 -23.49677682 48.32714558 C-26.38750799 51.22648111 -29.28398289 54.12006813 -32.17977905 57.01434326 C-37.19986207 62.03337551 -42.21625846 67.05606849 -47.23019791 72.08123779 C-54.4795948 79.34686082 -61.73448151 86.60698144 -68.99073754 93.86575341 C-80.76222431 105.64162183 -92.52923407 117.42195341 -104.29345703 129.20507812 C-115.72406199 140.65402975 -127.15675719 152.10088739 -138.59228516 163.54492188 C-139.29669067 164.24985283 -140.00109618 164.95478379 -140.72684731 165.68107629 C-144.26051248 169.21735146 -147.79421894 172.75358536 -151.32794595 176.28979874 C-180.66253641 205.64513633 -209.98987369 235.00771189 -239.3125 264.375 C-238.57641 267.67729695 -238.57641 267.67729695 -235.20703125 269.20703125 C-233.85220863 269.87912058 -232.49102306 270.53847812 -231.125 271.1875 C-230.03578247 271.7141626 -230.03578247 271.7141626 -228.92456055 272.25146484 C-226.72640858 273.30556064 -224.52042235 274.3415584 -222.3125 275.375 C-221.178125 275.91769531 -220.04375 276.46039063 -218.875 277.01953125 C-203.19613153 284.16170811 -186.35025351 288.17699645 -169.3125 290.375 C-168.27996094 290.51808594 -167.24742187 290.66117187 -166.18359375 290.80859375 C-121.45623881 295.63271592 -76.10607351 280.26232659 -41.26953125 252.6171875 C-5.9134971 223.95381957 17.91833239 181.84717891 22.6875 136.375 C26.07240115 99.74553396 19.68802335 59.40386316 -1.3125 28.375 C-3.4467025 28.15779949 -3.4467025 28.15779949 -5.0741359 29.88823891 Z " fill="#000000" transform="translate(406.3125,138.625)"/>
<path d="M0 0 C2.74757883 4.12136825 2.90606827 7.1770871 2 12 C0.78194457 13.84738022 0.78194457 13.84738022 -0.88070965 15.63839817 C-1.52034189 16.33104365 -2.15997412 17.02368914 -2.81898916 17.73732388 C-6.99344852 22.06809076 -11.21276826 26.34996633 -15.47114563 30.59812927 C-16.52367192 31.65180959 -17.57598042 32.7057075 -18.62809151 33.7598024 C-21.50217584 36.63804097 -24.37934587 39.51317715 -27.25706065 42.38778532 C-30.36650643 45.49496142 -33.47306453 48.6050224 -36.58000183 51.71470642 C-42.65829754 57.79744111 -48.73928422 63.87747864 -54.82125077 69.95654272 C-59.76188261 74.89491442 -64.7015354 79.83426344 -69.64049339 84.77430916 C-70.34390927 85.47787827 -71.04732515 86.18144738 -71.77205667 86.90633677 C-73.2010347 88.33563453 -74.63001049 89.76493454 -76.05898406 91.19423676 C-89.44593302 104.5840347 -102.83594112 117.97077005 -116.22700258 131.35645492 C-127.72477064 142.84974961 -139.21990612 154.34567185 -150.71313477 165.84350586 C-164.06086349 179.19658054 -177.41020562 192.54803882 -190.76214474 205.89690357 C-192.18429374 207.31873402 -193.60644064 208.74056655 -195.02858543 210.1624012 C-195.7283231 210.86198459 -196.42806077 211.56156799 -197.14900262 212.28235088 C-202.08783638 217.22031999 -207.0255063 222.15945106 -211.96273232 227.09902763 C-217.97211575 233.11120923 -223.98326452 239.12161897 -229.9967166 245.12973117 C-233.06655308 248.19693178 -236.13557018 251.26494086 -239.20244217 254.3351059 C-242.00598389 257.14161252 -244.81179653 259.94582714 -247.61949196 262.74817813 C-248.63835532 263.76591822 -249.65636378 264.78451498 -250.67345957 265.80402153 C-252.04889501 267.1824685 -253.42767195 268.55757892 -254.80664539 269.93248653 C-255.57368316 270.69936194 -256.34072092 271.46623735 -257.13100225 272.25635141 C-259.85299805 274.79578953 -261.66863753 275.2157724 -265.3125 275.375 C-266.07175781 275.42398437 -266.83101562 275.47296875 -267.61328125 275.5234375 C-273.20018392 274.29815934 -276.28166846 268.40002847 -279.1875 263.875 C-306.75411604 220.30101774 -317.32551018 167.52143644 -306.06982422 116.87084961 C-297.82612322 81.53880421 -282.12341326 50.37013903 -257 24 C-256.45714355 23.42991211 -255.91428711 22.85982422 -255.35498047 22.27246094 C-247.1326763 13.69480305 -238.82009917 5.74902926 -229 -1 C-227.98824707 -1.69706055 -227.98824707 -1.69706055 -226.95605469 -2.40820312 C-160.58259186 -47.48870271 -64.7060124 -51.55775068 0 0 Z M-230.7578125 28.9453125 C-232.69106313 30.71689757 -234.66289334 32.39782341 -236.6875 34.0625 C-240.54877381 37.35540874 -243.76598635 41.10098354 -247 45 C-247.61617187 45.72832031 -248.23234375 46.45664063 -248.8671875 47.20703125 C-278.19585814 82.71945774 -292.3895582 128.33090482 -288.29345703 174.2734375 C-285.55431566 199.72329679 -278.15994746 225.48543259 -264 247 C-260.63720729 245.53920924 -258.43664368 243.68550518 -255.85334396 241.09943962 C-254.61872583 239.87079463 -254.61872583 239.87079463 -253.35916591 238.61732852 C-252.46033537 237.71267231 -251.56150484 236.80801609 -250.63543701 235.87594604 C-249.66720825 234.90858933 -248.69854014 233.94167219 -247.72947049 232.97515786 C-245.06602636 230.31619139 -242.40886802 227.65101942 -239.75267792 224.98480916 C-236.88789625 222.11140137 -234.01734825 219.24376456 -231.14749146 216.37542725 C-226.17546281 211.40444798 -221.20711304 206.42981605 -216.24123383 201.45269394 C-209.06137645 194.25659174 -201.87601158 187.06600973 -194.68928471 179.87676884 C-183.02982678 168.21293221 -171.37484341 156.54463498 -159.72265625 144.87353516 C-148.40273218 133.53525682 -137.08071223 122.19907815 -125.75585938 110.86572266 C-125.0579533 110.16729114 -124.36004723 109.46885962 -123.64099249 108.74926351 C-120.13983676 105.24549773 -116.6386397 101.74177324 -113.13742208 98.2380693 C-84.0852043 69.16511356 -55.04024039 40.08491934 -26 11 C-26.73609 7.69770305 -26.73609 7.69770305 -30.10546875 6.16796875 C-31.46029137 5.49587942 -32.82147694 4.83652188 -34.1875 4.1875 C-34.91364502 3.8363916 -35.63979004 3.4852832 -36.38793945 3.12353516 C-38.58609142 2.06943936 -40.79207765 1.0334416 -43 0 C-44.134375 -0.54269531 -45.26875 -1.08539063 -46.4375 -1.64453125 C-107.13797559 -29.29534886 -182.06143897 -16.0171538 -230.7578125 28.9453125 Z " fill="#000000" transform="translate(371,98)"/>
</svg>
