<?xml version="1.0" encoding="UTF-8"?>
<svg version="1.1" xmlns="http://www.w3.org/2000/svg" width="512" height="512">
<path d="M0 0 C1.01790619 0.00215515 2.03581238 0.0043103 3.08456421 0.00653076 C17.69363523 0.05620146 32.02575853 0.30709809 46.375 3.3125 C47.34985352 3.51117676 48.32470703 3.70985352 49.32910156 3.91455078 C88.37782454 12.08284366 124.83813271 27.70153311 156.375 52.3125 C157.27089844 52.99699219 158.16679687 53.68148437 159.08984375 54.38671875 C174.64561709 66.50203669 189.29582193 80.73146847 201.375 96.3125 C202.14972656 97.27027344 202.92445313 98.22804688 203.72265625 99.21484375 C238.26056965 142.61986011 256.81394766 197.76289597 256.69067383 253.03979492 C256.6875221 255.97938487 256.71104926 258.9179558 256.73632812 261.85742188 C256.78098737 275.23056192 255.57551542 288.12666711 253.375 301.3125 C253.09281616 303.01805054 253.09281616 303.01805054 252.80493164 304.75805664 C245.77946967 343.86954746 228.79665906 381.05202178 204.375 412.3125 C203.61574219 413.28445313 202.85648437 414.25640625 202.07421875 415.2578125 C189.73986402 430.63741644 175.93895499 445.19015196 160.375 457.3125 C159.43914062 458.07691406 158.50328125 458.84132813 157.5390625 459.62890625 C125.58628299 485.2157721 86.41988322 501.72551276 46.375 509.3125 C45.56562988 509.47621094 44.75625977 509.63992188 43.92236328 509.80859375 C13.88110013 515.67977137 -20.7615176 514.58512909 -50.625 508.3125 C-52.14794678 507.99901611 -52.14794678 507.99901611 -53.70166016 507.67919922 C-90.84546555 499.78695344 -125.70945445 483.68345578 -155.625 460.3125 C-156.59695312 459.55324219 -157.56890625 458.79398437 -158.5703125 458.01171875 C-173.94991644 445.67736402 -188.50265196 431.87645499 -200.625 416.3125 C-201.77162109 414.90871094 -201.77162109 414.90871094 -202.94140625 413.4765625 C-228.5282721 381.52378299 -245.03801276 342.35738322 -252.625 302.3125 C-252.78871094 301.50312988 -252.95242187 300.69375977 -253.12109375 299.85986328 C-258.59069558 271.87335724 -258.46977511 238.21828161 -252.625 210.3125 C-252.42632324 209.33764648 -252.22764648 208.36279297 -252.02294922 207.35839844 C-241.7272891 158.1397446 -219.29081567 114.71000304 -184.625 78.3125 C-184.05475098 77.71356934 -183.48450195 77.11463867 -182.89697266 76.49755859 C-174.89671874 68.15723469 -166.68033043 60.51197864 -157.39306641 53.62744141 C-155.58557641 52.28318 -153.79826388 50.91490873 -152.01171875 49.54296875 C-143.60452986 43.15390681 -134.86138957 37.61168285 -125.65234375 32.45166016 C-123.78933792 31.40484113 -121.94116361 30.33571119 -120.09375 29.26171875 C-83.4933446 8.69459905 -41.63834482 -0.15855121 0 0 Z M-115.31640625 127.19140625 C-117.43995436 129.14248345 -119.61175681 131.01218282 -121.8125 132.875 C-152.21116571 159.51175498 -170.09804458 203.34920643 -173.09765625 243.04296875 C-175.33928005 278.97590716 -167.59673061 314.51271513 -148.625 345.3125 C-145.26220729 343.85170924 -143.06164368 341.99800518 -140.47834396 339.41193962 C-139.24372583 338.18329463 -139.24372583 338.18329463 -137.98416591 336.92982852 C-137.08533537 336.02517231 -136.18650484 335.12051609 -135.26043701 334.18844604 C-134.29220825 333.22108933 -133.32354014 332.25417219 -132.35447049 331.28765786 C-129.69102636 328.62869139 -127.03386802 325.96351942 -124.37767792 323.29730916 C-121.51289625 320.42390137 -118.64234825 317.55626456 -115.77249146 314.68792725 C-110.80046281 309.71694798 -105.83211304 304.74231605 -100.86623383 299.76519394 C-93.68637645 292.56909174 -86.50101158 285.37850973 -79.31428471 278.18926884 C-67.65482678 266.52543221 -55.99984341 254.85713498 -44.34765625 243.18603516 C-33.02773218 231.84775682 -21.70571223 220.51157815 -10.38085938 209.17822266 C-9.6829533 208.47979114 -8.98504723 207.78135962 -8.26599249 207.06176351 C-4.76483676 203.55799773 -1.2636397 200.05427324 2.23757792 196.5505693 C31.2897957 167.47761356 60.33475961 138.39741934 89.375 109.3125 C88.63891 106.01020305 88.63891 106.01020305 85.26953125 104.48046875 C83.91470863 103.80837942 82.55352306 103.14902188 81.1875 102.5 C80.46135498 102.1488916 79.73520996 101.7977832 78.98706055 101.43603516 C76.78890858 100.38193936 74.58292235 99.3459416 72.375 98.3125 C71.240625 97.76980469 70.10625 97.22710937 68.9375 96.66796875 C8.29336276 69.04281489 -66.64742855 82.26020604 -115.31640625 127.19140625 Z M145.6133641 168.82573891 C144.53913529 169.90110688 144.53913529 169.90110688 143.44320488 170.99819946 C142.2041097 172.2313215 142.2041097 172.2313215 140.9399823 173.48935509 C140.02754418 174.40761889 139.11510607 175.32588268 138.17501831 176.27197266 C137.20026645 177.24585325 136.22507557 178.21929459 135.24948132 179.19233131 C132.55870796 181.87861178 129.87424534 184.57112399 127.19072318 187.26464558 C124.29999201 190.16398111 121.40351711 193.05756813 118.50772095 195.95184326 C113.48763793 200.97087551 108.47124154 205.99356849 103.45730209 211.01873779 C96.2079052 218.28436082 88.95301849 225.54448144 81.69676246 232.80325341 C69.92527569 244.57912183 58.15826593 256.35945341 46.39404297 268.14257812 C34.96343801 279.59152975 23.53074281 291.03838739 12.09521484 302.48242188 C11.39080933 303.18735283 10.68640382 303.89228379 9.96065269 304.61857629 C6.42698752 308.15485146 2.89328106 311.69108536 -0.64044595 315.22729874 C-29.97503641 344.58263633 -59.30237369 373.94521189 -88.625 403.3125 C-87.88891 406.61479695 -87.88891 406.61479695 -84.51953125 408.14453125 C-83.16470863 408.81662058 -81.80352306 409.47597812 -80.4375 410.125 C-79.34828247 410.6516626 -79.34828247 410.6516626 -78.23706055 411.18896484 C-76.03890858 412.24306064 -73.83292235 413.2790584 -71.625 414.3125 C-70.490625 414.85519531 -69.35625 415.39789063 -68.1875 415.95703125 C-52.50863153 423.09920811 -35.66275351 427.11449645 -18.625 429.3125 C-17.59246094 429.45558594 -16.55992187 429.59867187 -15.49609375 429.74609375 C29.23126119 434.57021592 74.58142649 419.19982659 109.41796875 391.5546875 C144.7740029 362.89131957 168.60583239 320.78467891 173.375 275.3125 C176.75990115 238.68303396 170.37552335 198.34136316 149.375 167.3125 C147.2407975 167.09529949 147.2407975 167.09529949 145.6133641 168.82573891 Z " fill="#000000" transform="translate(255.625,-0.3125)"/>
</svg>
