<?xml version="1.0" encoding="UTF-8"?>
<svg version="1.1" xmlns="http://www.w3.org/2000/svg" width="512" height="512">
<path d="M0 0 C3.43076282 0.01071885 6.86100097 0.00003746 10.29174805 -0.01269531 C28.11295996 -0.02453569 45.65260409 1.11857497 63.25073242 4.01074219 C64.79942017 4.26452637 64.79942017 4.26452637 66.37939453 4.5234375 C115.03845453 12.81429043 161.60412184 31.95838508 200.00073242 63.26074219 C200.55148437 63.70853027 201.10223633 64.15631836 201.66967773 64.61767578 C215.01552531 75.55670811 227.50027877 87.5350183 238.00073242 101.26074219 C238.69030029 102.14366943 238.69030029 102.14366943 239.39379883 103.04443359 C273.81745011 147.14029129 288.24708303 202.52380677 295.00073242 257.26074219 C295.15171387 258.42959961 295.30269531 259.59845703 295.45825195 260.80273438 C302.81160925 319.89929521 300.5614453 384.14833237 283.00073242 441.26074219 C282.74678711 442.08864258 282.4928418 442.91654297 282.23120117 443.76953125 C279.33096359 452.94715472 275.62853058 460.13616208 269.00073242 467.26074219 C268.26467773 468.10121094 267.52862305 468.94167969 266.77026367 469.80761719 C264.55079057 472.3288775 262.28894012 474.80183338 260.00073242 477.26074219 C259.38842773 477.9271875 258.77612305 478.59363281 258.14526367 479.28027344 C252.03916884 485.67279489 245.03739773 490.94696105 238.00073242 496.26074219 C236.69749023 497.25654297 236.69749023 497.25654297 235.36791992 498.27246094 C222.9686991 507.37749933 208.42824103 514.55584711 192.68774414 512.83496094 C181.75316625 510.49822396 171.46870103 503.74474961 161.71020508 498.48828125 C160.11571533 497.65248535 160.11571533 497.65248535 158.48901367 496.79980469 C157.53164307 496.28885254 156.57427246 495.77790039 155.58789062 495.25146484 C152.77267112 494.17340872 151.73900214 494.11960773 149.00073242 495.26074219 C147.13086219 496.52433889 147.13086219 496.52433889 145.31323242 498.07324219 C136.0368192 505.23669462 124.67412345 508.48909637 113.00073242 507.26074219 C104.44687402 505.16546938 96.61350302 501.93047593 88.77923584 497.967453 C87.729089 497.44627956 86.67894217 496.92510612 85.5969727 496.38813955 C82.72126138 494.95845288 79.85012445 493.52004982 76.9808054 492.07759035 C73.87059454 490.51678053 70.7546027 488.96758692 67.63937378 487.41682434 C61.55318388 484.38479662 55.47240227 481.34207632 49.39354512 478.29537841 C44.45052675 475.81820479 39.50555214 473.34497821 34.55918121 470.874506 C33.85304861 470.52182278 33.14691601 470.16913956 32.41938545 469.80576897 C30.98454942 469.08915033 29.54970892 468.37254062 28.11486402 467.65593974 C14.68806743 460.94965558 1.26740764 454.23116634 -12.15115651 447.50842855 C-23.64915057 441.74825863 -35.15235316 435.99860669 -46.65942383 430.2565918 C-60.04643495 423.57648267 -73.43015968 416.88986061 -86.80874896 410.19289857 C-88.23682161 409.47806593 -89.66489842 408.7632416 -91.09297943 408.04842567 C-91.79549041 407.6967845 -92.49800139 407.34514332 -93.22180058 406.98284635 C-98.15765916 404.51276416 -103.09581382 402.0473123 -108.03488922 399.58366966 C-114.05748255 396.57940392 -120.07642843 393.56797361 -126.0908933 390.54746576 C-129.15588097 389.00842849 -132.22234108 387.4725529 -135.29327011 385.94540024 C-138.62880346 384.28448941 -141.95790287 382.61131613 -145.28570557 380.9349823 C-146.2467052 380.46005929 -147.20770483 379.98513627 -148.19782567 379.49582165 C-160.79286373 373.10723453 -170.22385561 365.05444707 -175.27270508 351.62011719 C-176.73004269 346.88768752 -177.13565519 342.58935473 -177.12426758 337.63574219 C-177.12813477 335.94578125 -177.12813477 335.94578125 -177.13208008 334.22167969 C-176.99926758 331.26074219 -176.99926758 331.26074219 -175.99926758 328.26074219 C-176.74950195 328.01582031 -177.49973633 327.77089844 -178.27270508 327.51855469 C-181.33444285 326.10611979 -182.59383196 324.7966327 -184.62426758 322.13574219 C-185.1940332 321.41128906 -185.76379883 320.68683594 -186.35083008 319.94042969 C-190.07473642 313.88687577 -191.45292495 307.98895224 -191.91333008 301.01855469 C-191.9733017 300.25131073 -192.03327332 299.48406677 -192.09506226 298.693573 C-192.28250846 296.25831461 -192.45349097 293.82221979 -192.62426758 291.38574219 C-192.74562187 289.79191254 -192.86801103 288.19816134 -192.99145508 286.60449219 C-193.35601291 281.82505705 -193.6814569 277.04348012 -193.99926758 272.26074219 C-194.04946045 271.53603729 -194.09965332 270.8113324 -194.15136719 270.06466675 C-195.07467436 256.57320553 -195.2418988 243.09344397 -195.24926758 229.57324219 C-195.24994232 228.45267426 -195.25061707 227.33210632 -195.25131226 226.17758179 C-195.21576511 188.86205332 -193.90510571 141.83387478 -172.22973633 109.63183594 C-170.65930297 106.60563578 -171.06870514 105.49023468 -171.99926758 102.26074219 C-173.21453648 100.1220659 -173.21453648 100.1220659 -174.80786133 98.10839844 C-175.67483643 96.95380127 -175.67483643 96.95380127 -176.55932617 95.77587891 C-177.17888184 94.96650879 -177.7984375 94.15713867 -178.43676758 93.32324219 C-179.70904441 91.61892066 -180.98117873 89.91449274 -182.25317383 88.20996094 C-184.52693057 85.19162279 -186.82548331 82.19584822 -189.15161133 79.21777344 C-197.18201584 68.76920902 -197.18201584 68.76920902 -196.74145508 62.22558594 C-194.70978957 56.84701882 -190.74648506 54.24077918 -185.83520508 51.66699219 C-185.24309235 51.35298462 -184.65097961 51.03897705 -184.04092407 50.7154541 C-182.15740051 49.71994144 -180.2661319 48.74029352 -178.37426758 47.76074219 C-177.12764286 47.10419731 -175.881544 46.44665291 -174.63598633 45.78808594 C-171.10120243 43.92432902 -167.55217654 42.08971793 -163.99926758 40.26074219 C-163.01635742 39.75027344 -162.03344727 39.23980469 -161.02075195 38.71386719 C-159.706875 38.04097656 -159.706875 38.04097656 -158.36645508 37.35449219 C-157.61734863 36.96970703 -156.86824219 36.58492187 -156.09643555 36.18847656 C-151.38622937 34.10479979 -147.55262911 33.6854231 -142.62426758 35.51074219 C-139.99926758 37.26074219 -139.99926758 37.26074219 -137.99926758 40.26074219 C-137.62817383 42.34667969 -137.62817383 42.34667969 -137.56176758 44.63574219 C-137.50182617 45.76109375 -137.50182617 45.76109375 -137.44067383 46.90917969 C-138.30660606 50.55457272 -140.12407052 51.88430381 -142.99926758 54.26074219 C-146.06332946 56.13780585 -149.22848239 57.77048544 -152.43676758 59.38574219 C-153.27014648 59.815 -154.10352539 60.24425781 -154.9621582 60.68652344 C-156.5755725 61.51555055 -158.19184198 62.33905088 -159.8112793 63.15625 C-161.705143 64.11226868 -163.58946556 65.08714429 -165.47192383 66.06542969 C-167.99926758 67.26074219 -167.99926758 67.26074219 -169.99926758 67.26074219 C-169.03419932 68.61575902 -168.0688696 69.9705901 -167.10253906 71.32470703 C-166.22906424 72.55024821 -165.35753558 73.77717842 -164.48779297 75.00537109 C-161.87219209 78.68678949 -159.20835484 82.32132949 -156.47583008 85.91699219 C-155.88825928 86.70090332 -155.30068848 87.48481445 -154.6953125 88.29248047 C-153.54408716 89.82648863 -152.38057612 91.35137154 -151.20361328 92.86572266 C-147.82594989 97.40230307 -145.17590362 101.43238951 -145.99926758 107.26074219 C-147.3085442 110.74917004 -149.11568248 113.86616227 -150.99926758 117.07324219 C-156.42880938 126.8510921 -160.56118138 136.63183732 -163.99926758 147.26074219 C-164.37051758 148.35773438 -164.74176758 149.45472656 -165.12426758 150.58496094 C-172.28988872 174.54500665 -159.07339673 202.45156249 -147.99926758 223.26074219 C-147.65524902 223.9154248 -147.31123047 224.57010742 -146.95678711 225.24462891 C-141.15543346 236.21716585 -134.33579012 246.26338442 -126.99926758 256.26074219 C-126.2490332 257.29714844 -125.49879883 258.33355469 -124.72583008 259.40136719 C-115.50349573 271.94922731 -105.50643116 283.91433988 -94.81567383 295.23339844 C-92.81532957 297.35357414 -90.91098871 299.5326855 -89.02270508 301.75292969 C-83.94607021 307.58437727 -78.42128898 312.98763415 -72.94775391 318.44262695 C-71.06598484 320.31903694 -69.1896202 322.20073188 -67.3137207 324.08300781 C-61.89469847 329.5050377 -56.49129713 334.88734 -50.64794922 339.85717773 C-48.08629994 342.03797467 -45.64840937 344.34280032 -43.18676758 346.63574219 C-38.54369569 350.92504921 -33.76485141 354.98752837 -28.83911133 358.95214844 C-26.28107967 361.03164872 -23.76783964 363.15126501 -21.26416016 365.29516602 C-14.36244011 371.2002107 -7.27129598 376.81853534 0.00073242 382.26074219 C0.69408691 382.78007324 1.38744141 383.2994043 2.10180664 383.83447266 C7.70393413 388.019268 13.34389311 392.15029735 19.00073242 396.26074219 C19.79898438 396.84404297 20.59723633 397.42734375 21.41967773 398.02832031 C43.53461323 414.12662635 67.39876546 426.78760107 91.79244304 439.00757742 C93.9342604 440.08105927 96.07497707 441.15670609 98.21536446 442.23303604 C105.71061351 446.00193545 113.21000041 449.76244941 120.71337891 453.51513672 C127.671137 456.99524279 134.61884884 460.4948555 141.56244653 464.00311649 C147.57445292 467.03955777 153.59332727 470.06206887 159.61767393 473.07395184 C163.19506517 474.86278844 166.76945115 476.65706367 170.33686638 478.46572495 C173.67568387 480.15793846 177.02274056 481.83259463 180.37681389 483.49435425 C182.18080723 484.39348057 183.97592413 485.31034883 185.7706604 486.22781372 C192.6565666 489.61334206 198.39134014 492.02609202 206.07307339 489.60854912 C208.02817131 488.84231011 209.83744306 487.93980377 211.68823242 486.94824219 C212.37175781 486.59286377 213.0552832 486.23748535 213.75952148 485.87133789 C221.18878775 481.85530942 227.64007083 476.77899473 234.00073242 471.26074219 C234.53182617 470.8026416 235.06291992 470.34454102 235.61010742 469.87255859 C252.30103511 455.3517404 252.30103511 455.3517404 261.0456543 435.60693359 C261.2247937 434.79382721 261.40393311 433.98072083 261.58850098 433.14297485 C261.72453735 432.52183807 261.86057373 431.90070129 262.00073242 431.26074219 C261.46822372 431.05157669 260.93571503 430.84241119 260.3870697 430.62690735 C235.63928666 420.90260023 210.9041903 411.17529921 186.45092773 400.72851562 C182.99224853 399.25713299 179.52501869 397.80772684 176.05541992 396.36230469 C157.69713498 388.67113048 139.80454398 380.14755565 122.00073242 371.26074219 C120.82752441 370.67615234 119.65431641 370.0915625 118.44555664 369.48925781 C66.96275586 343.6841689 5.6868427 302.14754546 -14.99926758 245.26074219 C-21.94525139 222.91654841 -22.51303016 198.56541085 -11.99926758 177.26074219 C-9.89516292 173.71148574 -7.59320765 170.46467274 -4.99926758 167.26074219 C-4.37793945 166.43058594 -3.75661133 165.60042969 -3.11645508 164.74511719 C5.55901662 154.56504339 19.10531275 148.14805856 32.32104492 147.07177734 C34.94497522 146.93113712 37.56088241 146.86248851 40.18823242 146.82324219 C40.99993896 146.80100586 41.81164551 146.77876953 42.64794922 146.75585938 C48.17137824 146.77511782 53.35634679 147.66156766 58.71411133 148.94262695 C59.45459371 149.11879107 60.19507608 149.29495518 60.95799732 149.4764576 C69.55573717 151.57238814 77.97922635 154.1957283 86.41870117 156.84667969 C88.15433591 157.3869584 89.89014472 157.92667818 91.62611389 158.46588135 C95.2741087 159.60006761 98.92101136 160.73766917 102.5670166 161.87823486 C108.22703768 163.64875442 113.88946407 165.41148235 119.55249023 167.17236328 C120.48881727 167.46352587 121.42514431 167.75468845 122.38984489 168.05467415 C124.27161215 168.63982359 126.15338638 169.22495056 128.03516769 169.81005478 C130.82941294 170.6791451 133.6234269 171.54897543 136.41738892 172.41897583 C151.01212256 176.96227284 165.62278927 181.45038928 180.25073242 185.88574219 C181.20362152 186.17487488 182.15651062 186.46400757 183.13827515 186.76190186 C188.09151679 188.26453816 193.04556216 189.76447837 198.00073242 191.26074219 C196.20700859 185.50845542 194.16823795 180.07036713 191.43823242 174.69824219 C191.09526123 174.02059814 190.75229004 173.3429541 190.39892578 172.64477539 C182.49883843 157.34023019 172.70929206 144.28732632 161.09838867 131.58105469 C159.28365801 129.57369898 157.54681556 127.52506609 155.81323242 125.44824219 C146.46148271 114.76052823 135.30375627 105.78153107 124.00073242 97.26074219 C123.41743164 96.81520996 122.83413086 96.36967773 122.2331543 95.91064453 C78.32870559 62.4280806 26.50980146 41.33161691 -26.81176758 28.19824219 C-28.01551025 27.89893799 -29.21925293 27.59963379 -30.45947266 27.29125977 C-41.41078175 24.69025574 -49.6936456 25.36597844 -60.68676758 27.69824219 C-61.80116211 27.92833984 -62.91555664 28.1584375 -64.0637207 28.39550781 C-66.13110956 28.82285901 -68.19784674 29.25338506 -70.26367188 29.68823242 C-84.68596946 32.70655351 -84.68596946 32.70655351 -89.99926758 29.38574219 C-92.70055587 26.51562337 -93.20578287 24.80395 -93.37426758 20.94824219 C-93.42325195 20.18898438 -93.47223633 19.42972656 -93.52270508 18.64746094 C-92.92163732 15.9067714 -91.92973817 14.29591128 -89.8503418 12.40551758 C-85.65271876 9.80954627 -80.64775986 9.12232322 -75.87426758 8.13574219 C-74.71008301 7.88276367 -73.54589844 7.62978516 -72.34643555 7.36914062 C-48.31018944 2.24519874 -24.57535947 -0.0910393 0 0 Z M31.00073242 22.26074219 C33.24051956 24.50052932 34.83999006 25.10713227 37.78588867 26.22167969 C39.27511841 26.79571533 39.27511841 26.79571533 40.79443359 27.38134766 C41.87313721 27.79529785 42.95184082 28.20924805 44.06323242 28.63574219 C85.17780442 44.77783156 122.89588956 66.99338426 156.00073242 96.26074219 C157.35811523 97.44990234 157.35811523 97.44990234 158.74291992 98.66308594 C186.18534456 122.98511027 209.02639682 153.52909904 219.93041992 188.86621094 C220.46022461 190.54650391 220.46022461 190.54650391 221.00073242 192.26074219 C221.15022842 192.90811844 221.29972443 193.55549469 221.45375061 194.2224884 C222.31841253 197.33099259 223.00098068 199.59903444 225.76489258 201.4283905 C228.07059042 202.34222164 230.35780748 203.02925028 232.75463867 203.66699219 C233.61129623 203.92202515 234.4679538 204.17705811 235.35057068 204.43981934 C238.08023637 205.24428889 240.82042416 206.00244628 243.56323242 206.76074219 C245.41239523 207.29948103 247.26071658 207.84111709 249.1081543 208.38574219 C256.94634564 211.05646504 256.94634564 211.05646504 265.00073242 212.26074219 C259.26565464 181.23417547 246.98611905 148.5770506 228.00073242 123.26074219 C227.56937988 122.67824707 227.13802734 122.09575195 226.69360352 121.49560547 C220.0277973 112.5567569 212.71475657 104.30267384 205.00073242 96.26074219 C204.21827148 95.43703125 203.43581055 94.61332031 202.62963867 93.76464844 C197.12747897 88.1055644 191.21364984 83.12065882 185.00073242 78.26074219 C184.42468262 77.80296387 183.84863281 77.34518555 183.25512695 76.87353516 C146.57584242 47.82727091 100.79786892 30.96890401 54.87573242 23.94824219 C53.76149902 23.77647461 52.64726562 23.60470703 51.49926758 23.42773438 C44.61856458 22.4393233 37.94931168 22.04973185 31.00073242 22.26074219 Z M11.00073242 181.26074219 C2.0967839 193.07631945 -0.35404019 207.4684858 1.46166992 221.93261719 C5.85473258 250.11013149 24.34204453 271.68968589 44.00073242 291.26074219 C45.06816331 292.34958239 46.13450206 293.43949395 47.19995117 294.53027344 C53.814058 301.26508252 60.40422974 307.62462729 68.00073242 313.26074219 C68.66073242 312.93074219 69.32073242 312.60074219 70.00073242 312.26074219 C70.60995483 310.02570383 70.60995483 310.02570383 70.96255493 307.26333618 C71.12517319 306.18087112 71.28779144 305.09840607 71.45533752 303.98313904 C71.625811 302.78520218 71.79628448 301.58726532 71.97192383 300.35302734 C72.15753372 299.09948959 72.34314362 297.84595184 72.53437805 296.5544281 C73.04453375 293.10721577 73.54338268 289.65845039 74.04017305 286.20929003 C74.56112681 282.60495427 75.09197155 279.00207583 75.62167358 275.39901733 C76.51021453 269.34532649 77.39204509 263.2906896 78.26928711 257.23535156 C79.39568287 249.4603395 80.53231339 241.68686167 81.67247963 233.91385841 C82.65175296 227.23769995 83.62712525 220.56097256 84.60144758 213.88408995 C84.81081919 212.44965657 85.02031817 211.01524178 85.2299428 209.58084536 C85.91932103 204.86344562 86.60480625 200.14549775 87.28833008 195.42724609 C87.46285202 194.2333577 87.63737396 193.0394693 87.81718445 191.80940247 C87.97416306 190.72129776 88.13114166 189.63319305 88.2928772 188.51211548 C88.43039209 187.56488932 88.56790699 186.61766315 88.709589 185.64173317 C89.06141954 183.16422631 89.06141954 183.16422631 89.00073242 180.26074219 C81.70863939 177.88226484 74.40644686 175.53816427 67.09008789 173.23535156 C65.2642791 172.65935751 63.43979377 172.07908958 61.6184082 171.48925781 C42.90925451 165.46542588 24.81958957 165.81756324 11.00073242 181.26074219 Z M109.00073242 186.26074219 C105.05350447 212.60815485 101.11443494 238.95677637 97.18667316 265.30709839 C96.45928318 270.18667756 95.73118382 275.06614948 95.00197697 279.94545746 C94.0382065 286.39440006 93.07880711 292.84396062 92.12698364 299.29467773 C91.836659 301.25734261 91.54459156 303.21975055 91.2507019 305.18188477 C90.85402679 307.83249399 90.46358026 310.48394319 90.07495117 313.13574219 C89.96310486 313.87336792 89.85125854 314.61099365 89.73602295 315.37097168 C89.10982177 319.70491272 88.59821133 323.89084946 89.00073242 328.26074219 C90.42351778 330.08699394 90.42351778 330.08699394 92.60229492 331.14746094 C93.78432495 331.83255737 93.78432495 331.83255737 94.99023438 332.53149414 C95.85994873 332.999021 96.72966309 333.46654785 97.62573242 333.94824219 C98.98347778 334.71624146 98.98347778 334.71624146 100.36865234 335.49975586 C102.28297299 336.57650978 104.20434332 337.64081317 106.13208008 338.69335938 C108.81683706 340.16026489 111.47890431 341.66105961 114.13745117 343.17480469 C154.89515877 366.1556691 198.60799665 383.28802516 242.00073242 400.52246094 C243.52851318 401.12938278 243.52851318 401.12938278 245.0871582 401.74856567 C248.05624516 402.92472234 251.02788561 404.0941234 254.00073242 405.26074219 C255.76610352 405.95679062 255.76610352 405.95679062 257.56713867 406.66690063 C259.32864258 407.35494278 259.32864258 407.35494278 261.12573242 408.05688477 C262.20081055 408.47819168 263.27588867 408.8994986 264.38354492 409.33357239 C266.85217122 410.37205115 266.85217122 410.37205115 269.00073242 410.26074219 C271.45749607 399.21154121 273.40105762 388.1980677 274.68823242 376.94824219 C274.807229 375.91328613 274.92622559 374.87833008 275.04882812 373.81201172 C275.39613565 370.63040435 275.7078176 367.44780882 276.00073242 364.26074219 C276.14647705 362.69259766 276.14647705 362.69259766 276.29516602 361.09277344 C277.33429852 348.04858227 277.2425721 334.96302535 277.25073242 321.88574219 C277.25207184 320.61984253 277.25341125 319.35394287 277.25479126 318.04968262 C277.2502553 298.26476685 276.54317898 278.88633991 274.00073242 259.26074219 C273.80060547 257.61477051 273.80060547 257.61477051 273.59643555 255.93554688 C272.80947617 245.08429135 272.80947617 245.08429135 269.00073242 235.26074219 C266.10568711 234.01792644 266.10568711 234.01792644 262.57592773 233.00610352 C261.90934647 232.79990418 261.2427652 232.59370485 260.5559845 232.38125706 C258.31664297 231.6914022 256.07288283 231.01722203 253.82885742 230.34277344 C252.2271421 229.85265855 250.62572859 229.36155638 249.02459717 228.86953735 C244.67640387 227.53623608 240.32428243 226.21620208 235.97137451 224.89838791 C231.43059396 223.52121093 226.89352775 222.13191396 222.35620117 220.7434082 C215.74129562 218.72018952 209.12526071 216.70074053 202.50783539 214.68577862 C190.09635401 210.90609153 177.69497636 207.09425032 165.29760742 203.26855469 C163.47528568 202.70639985 161.65295907 202.14426083 159.83062744 201.58213806 C156.28569244 200.48857283 152.7407948 199.39488657 149.19592285 198.30111694 C147.46419527 197.76681706 145.73246513 197.23252546 144.00073242 196.69824219 C143.13926102 196.43245487 142.27778961 196.16666756 141.39021301 195.89282608 C136.45258475 194.36966764 131.51451773 192.84794697 126.57578278 191.32838058 C125.07895389 190.86756956 123.58228271 190.40624591 122.08577728 189.94438553 C120.05391679 189.31734796 118.02153909 188.69201692 115.98901367 188.06713867 C114.84988525 187.71618637 113.71075684 187.36523407 112.53710938 187.00364685 C110.28127503 186.21389376 110.28127503 186.21389376 109.00073242 186.26074219 Z M-173.99926758 221.26074219 C-174.42299821 239.95052243 -173.8082772 258.48176717 -172.62426758 277.13574219 C-172.56105316 278.16651886 -172.49783875 279.19729553 -172.43270874 280.25930786 C-172.24768219 283.2370113 -172.05148767 286.21374251 -171.85083008 289.19042969 C-171.7955162 290.07378494 -171.74020233 290.9571402 -171.68321228 291.86726379 C-171.50714 294.34022449 -171.27069553 296.79655297 -170.99926758 299.26074219 C-170.89156036 300.47337738 -170.89156036 300.47337738 -170.78167725 301.71051025 C-170.15661452 306.15041041 -170.15661452 306.15041041 -167.47442627 309.57466888 C-166.8427655 309.94186287 -166.21110474 310.30905685 -165.56030273 310.68737793 C-164.8378002 311.10877611 -164.11529766 311.53017429 -163.37090111 311.96434212 C-159.14917829 314.27205184 -154.87995777 316.46773453 -150.57592773 318.61767578 C-149.56360077 319.12719788 -148.5512738 319.63671997 -147.50827026 320.16168213 C-144.18705503 321.83173128 -140.86289853 323.49581691 -137.53833008 325.15917969 C-135.22279042 326.3201641 -132.90731075 327.48126816 -130.59188843 328.64248657 C-125.75335165 331.0677272 -120.9132037 333.48971351 -116.07202148 335.90966797 C-110.47189212 338.70912914 -104.87631108 341.51753422 -99.28273165 344.33005655 C-93.89345642 347.03931172 -88.49981881 349.73975852 -83.1044426 352.43684769 C-80.81051555 353.58499496 -78.51789208 354.73575041 -76.22658157 355.88911057 C-73.03685436 357.49370452 -69.84228433 359.08820995 -66.64624023 360.68017578 C-65.69352234 361.16215424 -64.74080444 361.64413269 -63.75921631 362.14071655 C-62.89295624 362.5696521 -62.02669617 362.99858765 -61.13418579 363.44052124 C-60.37948816 363.81841482 -59.62479053 364.1963084 -58.84722328 364.58565331 C-57.93248521 364.9198223 -57.93248521 364.9198223 -56.99926758 365.26074219 C-56.33926758 364.93074219 -55.67926758 364.60074219 -54.99926758 364.26074219 C-56.8315002 362.57203445 -58.66503035 360.88477041 -60.49926758 359.19824219 C-61.00458008 358.73224609 -61.50989258 358.26625 -62.03051758 357.78613281 C-64.88642412 355.16226868 -67.77429527 352.58752413 -70.71386719 350.05761719 C-74.9678259 346.33918979 -78.98382258 342.4208635 -82.97192383 338.42089844 C-83.69866806 337.69511093 -84.42541229 336.96932343 -85.17417908 336.22154236 C-86.69889054 334.69750663 -88.22235908 333.17222649 -89.74462891 331.64575195 C-92.05560649 329.32941756 -94.37187529 327.01847141 -96.6887207 324.70800781 C-98.17927578 323.21679185 -99.66952058 321.72526566 -101.15942383 320.23339844 C-101.84190689 319.55293961 -102.52438995 318.87248077 -103.22755432 318.17140198 C-107.68310322 313.6943898 -111.88533108 309.05208962 -115.99926758 304.26074219 C-116.94856366 303.17763627 -117.89886983 302.09541353 -118.85083008 301.01464844 C-126.65105386 292.07150416 -133.91449038 282.77788263 -140.99926758 273.26074219 C-141.43980469 272.67357422 -141.8803418 272.08640625 -142.33422852 271.48144531 C-154.10796013 255.7279902 -164.11102961 238.78458087 -172.99926758 221.26074219 C-173.32926758 221.26074219 -173.65926758 221.26074219 -173.99926758 221.26074219 Z M-155.99926758 339.26074219 C-155.68101578 345.46665227 -153.09734573 349.77441922 -148.99926758 354.26074219 C-137.3071952 362.26827219 -123.75142187 368.02612962 -111.10668945 374.33642578 C-108.71028321 375.53598603 -106.31403445 376.73585633 -103.91796875 377.93609619 C-98.11892758 380.84003399 -92.31776089 383.73969992 -86.51578754 386.63777415 C-81.80054979 388.99312489 -77.08610467 391.35005511 -72.37220764 393.70808792 C-71.36186922 394.21348698 -71.36186922 394.21348698 -70.33111992 394.72909612 C-68.96246601 395.41374283 -67.59381388 396.09839311 -66.22516352 396.78304692 C-53.43274291 403.18209964 -40.63788748 409.57627119 -27.84217602 415.9687403 C-16.86983826 421.45043328 -5.89961468 426.93633772 5.0690918 432.42529297 C17.83168818 438.81194335 30.59557876 445.19599532 43.36154509 451.57590735 C44.72243126 452.25603191 46.08331578 452.93615979 47.44419861 453.61629105 C48.11366741 453.95087117 48.78313622 454.2854513 49.47289196 454.63017022 C54.18482044 456.98527191 58.89581957 459.34222592 63.60646057 461.69990158 C69.34219688 464.57057468 75.07935053 467.43839122 80.81833798 470.30255954 C83.74467296 471.76310082 86.67013776 473.22533846 89.59431458 474.69019699 C92.76445286 476.27799274 95.93700642 477.86085478 99.11022949 479.44247437 C100.03259415 479.90588742 100.95495881 480.36930047 101.90527391 480.84675634 C112.56648772 486.2536005 112.56648772 486.2536005 124.22338867 485.58496094 C126.16882721 484.86099704 128.08762187 484.06626242 130.00073242 483.26074219 C130.00073242 482.60074219 130.00073242 481.94074219 130.00073242 481.26074219 C93.85719365 463.16610545 57.71156109 445.07565779 21.56309832 426.99085981 C17.2996187 424.85786922 13.0361565 422.72484381 8.77270508 420.59179688 C7.9238951 420.16712958 7.07508513 419.74246228 6.20055364 419.30492628 C-7.55997921 412.42030343 -21.319097 405.53285714 -35.07769786 398.64437425 C-49.18556535 391.5811032 -63.2949401 384.52085015 -77.40573132 377.46342182 C-86.11929781 373.10526351 -94.83166692 368.74472924 -103.54253985 364.38118958 C-109.50849321 361.39294449 -115.47590234 358.40762073 -121.44448553 355.42463183 C-124.8927599 353.70113788 -128.34035752 351.97632338 -131.78623962 350.24805069 C-135.51435787 348.37826508 -139.24551123 346.51462072 -142.97702026 344.65161133 C-144.62582571 343.82283934 -144.62582571 343.82283934 -146.30794036 342.97732449 C-147.3012068 342.48268231 -148.29447325 341.98804014 -149.31783867 341.47840881 C-150.17980382 341.04704652 -151.04176897 340.61568422 -151.92985427 340.17125034 C-153.9275641 339.12650015 -153.9275641 339.12650015 -155.99926758 339.26074219 Z " fill="#000000" transform="translate(204.999267578125,-0.2607421875)"/>
<path d="M0 0 C0.73244431 0.36122955 1.46488861 0.72245911 2.2195282 1.09463501 C3.75117635 1.85293051 5.28126307 2.6143876 6.80981445 3.37890625 C9.14232184 4.54185611 11.48379307 5.68521455 13.82617188 6.828125 C15.32219953 7.57174101 16.81766296 8.31649347 18.3125 9.0625 C19.00732986 9.39913666 19.70215973 9.73577332 20.41804504 10.08261108 C24.5549401 12.18036915 27.21436526 14.18941949 29.82421875 18.1640625 C30.58916392 21.64521127 30.12853585 25.03808922 29.19921875 28.4765625 C27.03742265 31.1296759 25.04615375 32.0304187 21.82421875 33.1640625 C15.53952968 32.84518029 10.91554137 31.16009528 5.34375 28.33984375 C4.56787033 27.95595993 3.79199066 27.57207611 2.99259949 27.17655945 C1.36358778 26.36626262 -0.26241936 25.54989977 -1.88549805 24.7277832 C-4.35781166 23.47932451 -6.84276239 22.25925764 -9.33007812 21.04101562 C-10.91880716 20.24646588 -12.50672689 19.45029543 -14.09375 18.65234375 C-15.19857979 18.11290886 -15.19857979 18.11290886 -16.32572937 17.56257629 C-21.13113259 15.09470894 -24.03738192 12.58438564 -27.17578125 8.1640625 C-28.04903128 5.0357727 -27.90320071 2.32397263 -27.17578125 -0.8359375 C-24.97977738 -3.84759995 -23.31321906 -5.33040958 -19.92578125 -6.8359375 C-12.96667022 -6.8359375 -6.12176655 -3.04595916 0 0 Z " fill="#000000" transform="translate(385.17578125,445.8359375)"/>
<path d="M0 0 C7.28408269 2.49364993 12.6722648 12.64308013 17.16796875 18.7421875 C17.74804688 19.52722656 18.328125 20.31226562 18.92578125 21.12109375 C21.85726489 25.40105986 22.97273371 28.41061966 22.16796875 33.7421875 C20.91340903 36.56494686 19.88412153 38.20507291 17.41796875 40.0546875 C14.03510683 41.08833975 11.70045584 41.2211688 8.16796875 40.7421875 C2.20126771 36.99456589 -1.74901741 31.17267033 -5.70703125 25.4921875 C-6.28710938 24.6775 -6.8671875 23.8628125 -7.46484375 23.0234375 C-11.66811321 17.09172079 -14.02120489 13.22622598 -12.83203125 5.7421875 C-8.75788671 0.59589966 -6.44360322 -0.42375727 0 0 Z " fill="#000000" transform="translate(104.83203125,51.2578125)"/>
<path d="M0 0 C5.99817843 3.61157625 9.95185605 9.61956192 13.875 15.25 C14.45507812 16.0646875 15.03515625 16.879375 15.6328125 17.71875 C19.5194464 23.20362588 21.47309409 26.02186218 21 33 C19.34860695 36.5386994 18.28394771 37.81070153 15 40 C12.9140625 40.37109375 12.9140625 40.37109375 10.625 40.4375 C9.87476562 40.47746094 9.12453125 40.51742187 8.3515625 40.55859375 C1.04888983 38.82390572 -4.62563006 27.91760259 -9 22 C-9.58007812 21.2265625 -10.16015625 20.453125 -10.7578125 19.65625 C-14.02831672 14.94672392 -14.84514809 11.72822593 -14 6 C-10.40293061 0.36459129 -6.63955196 -1.24164102 0 0 Z " fill="#000000" transform="translate(70,65)"/>
<path d="M0 0 C2.69207751 1.68254844 3.65216939 2.83732147 4.55859375 5.8671875 C5.19701035 9.35544312 5.20713118 11.48217204 3.875 14.8125 C0.9521097 18.22253869 -1.47056312 19.77221153 -5.9375 20.4375 C-9.8124426 19.88393677 -11.95425348 18.40826469 -15 16 C-16.73631636 12.52736727 -16.60190402 8.78806987 -16 5 C-11.10092142 -1.18830979 -7.36816163 -1.65193659 0 0 Z " fill="#000000" transform="translate(88,24)"/>
<path d="M0 0 C3.12510013 2.28047848 3.8935013 3.61660467 4.9375 7.375 C5.01114138 11.64619985 4.5109828 13.54739865 2 17 C-1.96129054 19.43771726 -4.05940621 20.12753814 -8.6875 19.5 C-12.49963533 17.77375004 -14.00243339 16.67552256 -16 13 C-16.83125866 8.7665796 -16.50474651 5.89301305 -14.375 2.125 C-9.60849994 -2.13976321 -5.76746485 -2.75835275 0 0 Z " fill="#000000" transform="translate(348,428)"/>
</svg>
